<svg xmlns="http://www.w3.org/2000/svg" version="1.1" xmlns:xlink="http://www.w3.org/1999/xlink" xmlns:svgjs="http://svgjs.dev/svgjs" width="2000" height="818" viewBox="0 0 2000 818"><g transform="matrix(1,0,0,1,-1.2122061063514593,-1.8301735441161782)"><svg viewBox="0 0 396 162" data-background-color="#f1f5f9" preserveAspectRatio="xMidYMid meet" height="818" width="2000" xmlns="http://www.w3.org/2000/svg" xmlns:xlink="http://www.w3.org/1999/xlink"><g id="tight-bounds" transform="matrix(1,0,0,1,0.24004008017851675,0.36245490726994944)"><svg viewBox="0 0 395.52 161.2750901854601" height="161.2750901854601" width="395.52"><g><svg viewBox="0 0 395.52 161.2750901854601" height="161.2750901854601" width="395.52"><g><svg viewBox="0 0 606.2470272846559 247.19999999999996" height="161.2750901854601" width="395.52"><g><svg viewBox="0 0 377.55767195767186 247.19999999999996" height="247.19999999999996" width="377.55767195767186"><g id="textblocktransform"><svg viewBox="0 0 377.55767195767186 247.19999999999996" height="247.19999999999996" width="377.55767195767186" id="textblock"><g><svg viewBox="0 0 377.55767195767186 247.19999999999996" height="247.19999999999996" width="377.55767195767186"><g transform="matrix(1,0,0,1,0,0)"><svg width="377.55767195767186" viewBox="-4.404774277772001 -33 93.44477427777201 56.7" height="247.19999999999996" data-palette-color="#005099"><path d="M5.75 1.5L5.75 1.5Q5.7 3.25 5.68 4.83 5.65 6.4 5.6 7.7L5.6 7.7Q5.6 8.35 4.88 8.58 4.15 8.8 3.6 8.8L3.6 8.8Q3.5 3.15 3.33-2.95 3.15-9.05 2.95-15.05 2.75-21.05 2.45-26.3L2.45-26.3Q2.45-26.35 2.45-26.38 2.45-26.4 2.45-26.45L2.45-26.45Q2.45-26.8 2.95-27.1L2.95-27.1Q3.6-27.4 4.58-27.6 5.55-27.8 6.55-27.8L6.55-27.8Q6.45-23.4 6.33-18.23 6.2-13.05 6.05-8.1L6.05-8.1Q6.05-7.55 6.33-7.33 6.6-7.1 7.88-7.05 9.15-7 12.15-7L12.15-7 12.15 0 6.2 0Q5.9 0 5.83 0.25 5.75 0.5 5.75 1.5ZM25-17.9L25-17.9Q24.5-17.4 24.65-17.23 24.8-17.05 25.85-17.1L25.85-17.1Q28.85-17.1 31.95-17.1 35.05-17.1 37.8-17.1 40.55-17.1 42.55-17.07 44.55-17.05 45.35-16.95L45.35-16.95Q46.95-16.75 47.32-14.55 47.7-12.35 47.7-9.05L47.7-9.05Q47.7-4.7 47.22-2.35 46.75 0 45.65 0L45.65 0 15.95 0Q15.15 0 14.72-1.1 14.3-2.2 14.12-3.83 13.95-5.45 13.95-7L13.95-7 43.6-7Q44.3-7 44.47-7.1 44.65-7.2 44.65-7.65L44.65-7.65Q44.65-9.35 44.07-9.68 43.5-10 41.95-10.05L41.95-10.05Q40.85-10.1 38.6-10.13 36.35-10.15 33.42-10.15 30.5-10.15 27.42-10.13 24.35-10.1 21.6-10.08 18.85-10.05 16.95-10L16.95-10Q16.2-10 15.7-10.95 15.2-11.9 14.92-13.53 14.65-15.15 14.55-17L14.55-17Q16.55-18.7 19.4-20.68 22.25-22.65 25.55-24.78 28.85-26.9 32.25-29 35.65-31.1 38.8-33L38.8-33Q39.25-32.95 39.62-32.65 40-32.35 40.1-31.85L40.1-31.85Q37.35-29.45 34.57-26.95 31.8-24.45 29.32-22.15 26.85-19.85 25-17.9ZM-1.05 21.8L-1.05 21.8Q-1.95 21.5-2.73 20.25-3.5 19-3.98 17.28-4.45 15.55-4.4 13.9L-4.4 13.9Q1.1 15.55 6.25 16.35 11.4 17.15 16.1 17.15L16.1 17.15Q28.65 17.15 38.4 11.9 48.15 6.65 54.8-2.85L54.8-2.85Q55.2-4.1 55.32-5.73 55.45-7.35 55.45-8.85L55.45-8.85Q55.45-10.7 55.27-12.68 55.1-14.65 54.8-16.7L54.8-16.7Q54.8-16.75 54.8-16.75 54.8-16.75 54.8-16.8L54.8-16.8Q54.8-17 55.4-17.3L55.4-17.3Q55.95-17.55 56.75-17.68 57.55-17.8 58.2-17.8L58.2-17.8Q58.4-16.55 58.55-14.3 58.7-12.05 58.7-8.45L58.7-8.45Q58.7-7.5 58.85-7.25 59-7 59.6-7L59.6-7 61.6-7Q62-7 62.07-7.45 62.15-7.9 62.15-9.15L62.15-9.15Q62.1-12.7 61.75-14.55 61.4-16.4 61.4-16.7L61.4-16.7Q61.4-17.05 62-17.3L62-17.3Q62.55-17.55 63.35-17.68 64.15-17.8 64.8-17.8L64.8-17.8Q64.95-17 65.05-15.8 65.15-14.6 65.22-12.7 65.3-10.8 65.3-7.8L65.3-7.8Q65.3-7.25 65.4-7.13 65.5-7 65.8-7L65.8-7 67.9-7Q68.45-7 68.6-7.4 68.75-7.8 68.75-9.15L68.75-9.15Q68.75-12.7 68.37-14.55 68-16.4 68-16.7L68-16.7Q68-17.05 68.6-17.3L68.6-17.3Q69.15-17.55 69.95-17.68 70.75-17.8 71.4-17.8L71.4-17.8Q71.55-16.95 71.67-15.9 71.8-14.85 71.87-13.1 71.95-11.35 71.95-8.45L71.95-8.45Q71.95-4.8 71.47-2.4 71 0 69.85 0L69.85 0 59.8 0Q54.75 7.1 49.17 11.73 43.6 16.35 37.85 18.98 32.1 21.6 26.42 22.65 20.75 23.7 15.45 23.7L15.45 23.7Q13 23.7 10.05 23.53 7.1 23.35 4.2 22.93 1.3 22.5-1.05 21.8ZM85.79-12.3L85.79-12.3Q86.34-12.55 87.14-12.68 87.94-12.8 88.59-12.8L88.59-12.8Q88.79-11.95 88.92-10.65 89.04-9.35 89.04-7.6L89.04-7.6Q89.04-5.75 88.84-4 88.64-2.25 88.19-1.13 87.74 0 86.94 0L86.94 0 74.69 0 74.69-7 85.29-7Q85.64-7 85.77-7.33 85.89-7.65 85.89-8.15L85.89-8.15Q85.89-9.1 85.54-10.25 85.19-11.4 85.19-11.7L85.19-11.7Q85.19-12.05 85.79-12.3ZM80.14-23.7L80.14-23.7Q80.64-23.95 82.04-24.05 83.44-24.15 84.84-24.15L84.84-24.15Q85.54-24.15 86.14-24.15 86.74-24.15 87.24-24.05L87.24-24.05Q87.54-23.15 87.69-21.88 87.84-20.6 87.84-19.4L87.84-19.4Q87.84-16.35 86.79-15.65L86.79-15.65Q86.44-15.4 85.02-15.28 83.59-15.15 82.04-15.15L82.04-15.15Q81.34-15.15 80.69-15.18 80.04-15.2 79.49-15.25L79.49-15.25Q79.19-16.15 79.04-17.38 78.89-18.6 78.89-19.8L78.89-19.8Q78.89-21.35 79.22-22.4 79.54-23.45 80.14-23.7Z" opacity="1" transform="matrix(1,0,0,1,0,0)" fill="#005099" class="wordmark-text-0" data-fill-palette-color="primary" id="text-0"></path></svg></g></svg></g></svg></g></svg></g><g transform="matrix(1,0,0,1,435.9156591576718,14.69306736962838)"><svg viewBox="0 0 170.33136812698407 217.8138652607432" height="217.8138652607432" width="170.33136812698407"><g><svg xmlns="http://www.w3.org/2000/svg" xmlns:xlink="http://www.w3.org/1999/xlink" version="1.1" x="0" y="0" viewBox="56.97594834946159 3.368 386.02310345108026 493.633" enable-background="new 0 0 500 500" xml:space="preserve" height="217.8138652607432" width="170.33136812698407" class="icon-icon-0" data-fill-palette-color="accent" id="icon-0"><path d="M442.11 100.351L411.365 38.349A8.54 8.54 0 0 0 403.714 33.603H393.362L380.606 8.09A8.54 8.54 0 0 0 372.968 3.368H127.007A8.54 8.54 0 0 0 119.368 8.09L106.611 33.603H96.261A8.54 8.54 0 0 0 88.61 38.349L57.865 100.351A8.54 8.54 0 0 0 65.516 112.685H97.359L105.948 175.029H98.819A5.977 5.977 0 0 0 92.884 181.733L119.205 396.951A5.98 5.98 0 0 0 125.14 402.203H137.245L149.29 489.626A8.54 8.54 0 0 0 157.75 497.001H342.222A8.54 8.54 0 0 0 350.682 489.626L362.727 402.203H374.832A5.98 5.98 0 0 0 380.767 396.951L407.09 181.733A5.98 5.98 0 0 0 401.154 175.029H394.024L402.614 112.685H434.457A8.54 8.54 0 0 0 442.11 100.351M334.779 479.919H165.196L154.489 402.202H345.486zM376.786 175.028H123.19L114.601 112.684H385.374zM395.204 95.604L395.172 95.602H104.803L104.772 95.604H79.284L101.559 50.683H265.359A8.541 8.541 0 0 0 265.359 33.602H125.708L132.285 20.449H367.691L374.267 33.602H357.596A8.54 8.54 0 1 0 357.596 50.683H398.415L420.69 95.604z" fill="#005099" data-fill-palette-color="accent"></path></svg></g></svg></g></svg></g></svg></g><defs></defs></svg><rect width="395.52" height="161.2750901854601" fill="none" stroke="none" visibility="hidden"></rect></g></svg></g></svg>